<?xml version="1.0" standalone="no"?>
<!DOCTYPE svg PUBLIC "-//W3C//DTD SVG 20010904//EN"
 "http://www.w3.org/TR/2001/REC-SVG-20010904/DTD/svg10.dtd">
<svg version="1.0" xmlns="http://www.w3.org/2000/svg"
 width="200.000000pt" height="200.000000pt" viewBox="0 0 200.000000 200.000000"
 preserveAspectRatio="xMidYMid meet">

<g transform="translate(0.000000,200.000000) scale(0.100000,-0.100000)"
fill="#000000" stroke="none">
<path d="M980 1641 l0 -59 -80 -78 -80 -77 0 -68 0 -68 -142 -3 -143 -3 0
-170 0 -170 454 -3 c357 -2 456 0 463 10 13 21 10 312 -4 326 -8 8 -55 12
-145 12 l-133 0 0 61 0 62 -85 86 c-47 48 -85 95 -85 104 0 14 10 17 60 17
l60 0 0 40 0 40 -70 0 -70 0 0 -59z m51 -212 c17 -33 -4 -71 -37 -67 -15 2
-33 12 -40 23 -12 18 -11 24 2 43 20 28 60 29 75 1z m-361 -244 l0 -45 -45 0
-45 0 0 45 0 45 45 0 45 0 0 -45z m150 0 l0 -45 -45 0 -45 0 0 45 0 45 45 0
45 0 0 -45z m430 0 l0 -45 -40 0 -40 0 0 45 0 45 40 0 40 0 0 -45z m150 0 l0
-45 -45 0 -45 0 0 45 0 45 45 0 45 0 0 -45z m-361 -11 c17 -22 21 -41 21 -100
l0 -74 -70 0 -70 0 0 75 c0 67 3 79 25 100 32 33 68 32 94 -1z m-369 -134 l0
-40 -45 0 -45 0 0 40 0 40 45 0 45 0 0 -40z m150 0 l0 -40 -45 0 -45 0 0 40 0
40 45 0 45 0 0 -40z m430 0 l0 -40 -40 0 -40 0 0 40 0 40 40 0 40 0 0 -40z
m150 0 l0 -40 -45 0 -45 0 0 40 0 40 45 0 45 0 0 -40z"/>
<path d="M391 833 c0 -35 2 -63 7 -63 4 0 6 21 4 48 -5 75 -10 82 -11 15z"/>
<path d="M436 862 c0 -15 4 -35 8 -44 4 -9 4 -23 0 -30 -6 -11 -4 -11 7 0 10
10 11 17 2 31 -7 10 -9 28 -6 39 2 11 1 22 -4 25 -4 3 -8 -7 -7 -21z"/>
<path d="M993 830 c0 -36 2 -50 4 -32 2 17 2 47 0 65 -2 17 -4 3 -4 -33z"/>
<path d="M1039 873 c-13 -16 -12 -17 4 -4 16 13 21 21 13 21 -2 0 -10 -8 -17
-17z"/>
<path d="M754 838 c-15 -24 -31 -49 -37 -55 -5 -7 -6 -13 -1 -13 9 0 77 110
69 110 -3 0 -17 -19 -31 -42z"/>
<path d="M491 833 c-1 -23 3 -44 7 -47 4 -2 6 12 4 32 -5 56 -10 62 -11 15z"/>
<path d="M613 820 c0 -30 2 -43 4 -27 2 15 2 39 0 55 -2 15 -4 2 -4 -28z"/>
<path d="M666 857 c3 -10 9 -15 12 -12 3 3 0 11 -7 18 -10 9 -11 8 -5 -6z"/>
<path d="M1100 866 c0 -7 78 -79 91 -84 5 -2 8 18 8 45 l-2 48 -6 -40 -6 -40
-42 39 c-24 21 -43 36 -43 32z"/>
<path d="M1243 820 c0 -30 2 -43 4 -27 2 15 2 39 0 55 -2 15 -4 2 -4 -28z"/>
<path d="M1366 845 c-9 -14 -23 -36 -32 -50 -9 -14 -12 -25 -6 -25 5 0 12 8
15 18 3 9 15 32 27 50 12 17 20 32 17 32 -3 0 -12 -11 -21 -25z"/>
<path d="M1443 820 c0 -30 2 -43 4 -27 2 15 2 39 0 55 -2 15 -4 2 -4 -28z"/>
<path d="M1490 849 c-6 -11 -10 -25 -8 -30 2 -5 8 4 15 21 13 34 9 40 -7 9z"/>
<path d="M1623 820 c0 -30 2 -43 4 -27 2 15 2 39 0 55 -2 15 -4 2 -4 -28z"/>
<path d="M1010 832 c0 -5 12 -19 27 -33 l26 -24 -23 33 c-25 33 -30 38 -30 24z"/>
<path d="M650 816 c0 -7 7 -20 17 -27 15 -13 15 -12 5 7 -6 12 -8 24 -5 28 3
3 1 6 -5 6 -7 0 -12 -6 -12 -14z"/>
<path d="M881 825 c0 -5 6 -21 14 -35 8 -14 14 -20 14 -15 0 6 -6 21 -14 35
-8 14 -14 21 -14 15z"/>
</g>
</svg>
