<?xml version="1.0" standalone="no"?>
<!DOCTYPE svg PUBLIC "-//W3C//DTD SVG 20010904//EN"
 "http://www.w3.org/TR/2001/REC-SVG-20010904/DTD/svg10.dtd">
<svg version="1.0" xmlns="http://www.w3.org/2000/svg"
 width="99.000000pt" height="99.000000pt" viewBox="0 0 99.000000 99.000000"
 preserveAspectRatio="xMidYMid meet">

<g transform="translate(0.000000,99.000000) scale(0.100000,-0.100000)"
fill="#000000" stroke="none">
<path d="M490 721 l0 -59 -80 -78 -80 -77 0 -68 0 -68 -142 -3 -143 -3 0 -170
0 -170 454 -3 c357 -2 456 0 463 10 13 21 10 312 -4 326 -8 8 -55 12 -145 12
l-133 0 0 61 0 62 -85 86 c-47 48 -85 95 -85 104 0 14 10 17 60 17 l60 0 0 40
0 40 -70 0 -70 0 0 -59z m51 -212 c17 -33 -4 -71 -37 -67 -15 2 -33 12 -40 23
-12 18 -11 24 2 43 20 28 60 29 75 1z m-361 -244 l0 -45 -45 0 -45 0 0 45 0
45 45 0 45 0 0 -45z m150 0 l0 -45 -45 0 -45 0 0 45 0 45 45 0 45 0 0 -45z
m430 0 l0 -45 -40 0 -40 0 0 45 0 45 40 0 40 0 0 -45z m150 0 l0 -45 -45 0
-45 0 0 45 0 45 45 0 45 0 0 -45z m-361 -11 c17 -22 21 -41 21 -100 l0 -74
-70 0 -70 0 0 75 c0 67 3 79 25 100 32 33 68 32 94 -1z m-369 -134 l0 -40 -45
0 -45 0 0 40 0 40 45 0 45 0 0 -40z m150 0 l0 -40 -45 0 -45 0 0 40 0 40 45 0
45 0 0 -40z m430 0 l0 -40 -40 0 -40 0 0 40 0 40 40 0 40 0 0 -40z m150 0 l0
-40 -45 0 -45 0 0 40 0 40 45 0 45 0 0 -40z"/>
</g>
</svg>
